<?xml version="1.0" encoding="UTF-8"?>
<svg width="82px" height="90px" viewBox="0 0 82 90" version="1.1" xmlns="http://www.w3.org/2000/svg" xmlns:xlink="http://www.w3.org/1999/xlink">
    <!-- Generator: Sketch 53.2 (72643) - https://sketchapp.com -->
    <title>Shape</title>
    <desc>Created with Sketch.</desc>
    <g id="Page-1" stroke="none" stroke-width="1" fill="none" fill-rule="evenodd">
        <g id="noun_website-link_773256" transform="translate(-9.000000, 0.000000)" fill="#522630" fill-rule="nonzero">
            <path d="M90.735,30.343 C90.738,28.942 90.579,27.567 90.138,26.239 C88.855,22.362 86.698,19.147 83.081,17.057 C74.681,12.205 66.272,7.366 57.891,2.482 C55.613,1.153 53.185,0.487 50.576,0.416 C47.701,0.34 44.968,0.86 42.438,2.33 C33.977,7.238 25.466,12.066 17.043,17.041 C12.022,20.01 9.38,24.57 9.318,30.4 C9.215,40.144 9.294,49.888 9.286,59.634 C9.285,61.134 9.471,62.602 9.968,64.017 C11.293,67.785 13.434,70.909 16.977,72.948 C25.312,77.75 33.65,82.549 41.957,87.396 C44.139,88.669 46.439,89.423 48.946,89.56 C52.009,89.728 54.923,89.231 57.621,87.664 C66.024,82.787 74.431,77.914 82.863,73.084 C85.215,71.734 87.03,69.9 88.411,67.605 C89.743,65.39 90.682,63.025 90.705,60.409 C90.748,55.275 90.718,50.14 90.718,45.007 L90.731,45.007 C90.73,40.119 90.726,35.229 90.735,30.343 Z M54.551,56.148 L44.368,66.33 C42.764,67.935 40.629,68.82 38.357,68.82 C36.086,68.82 33.952,67.935 32.346,66.33 L28.669,62.652 C27.064,61.048 26.18,58.914 26.179,56.643 C26.179,54.372 27.064,52.238 28.669,50.632 L38.852,40.448 C39.829,39.471 41.411,39.471 42.387,40.448 C43.364,41.424 43.364,43.007 42.387,43.983 L32.205,54.168 C31.544,54.829 31.18,55.708 31.18,56.644 C31.18,57.579 31.544,58.457 32.205,59.117 L35.883,62.796 C37.207,64.119 39.513,64.117 40.832,62.796 L51.016,52.614 C51.993,51.637 53.575,51.637 54.551,52.614 C55.527,53.591 55.527,55.173 54.551,56.148 Z M58.354,33.111 C59.331,32.134 60.913,32.134 61.889,33.111 C62.865,34.088 62.866,35.67 61.889,36.646 L41.646,56.891 C41.158,57.379 40.518,57.623 39.878,57.623 C39.238,57.623 38.599,57.379 38.11,56.891 C37.133,55.914 37.133,54.332 38.11,53.356 L58.354,33.111 Z M71.329,39.368 L61.148,49.551 C60.66,50.039 60.02,50.283 59.38,50.283 C58.74,50.283 58.101,50.039 57.612,49.551 C56.635,48.575 56.635,46.992 57.612,46.016 L67.794,35.832 C68.455,35.171 68.819,34.293 68.819,33.358 C68.819,32.423 68.455,31.544 67.793,30.882 L64.117,27.204 C62.752,25.839 60.531,25.839 59.168,27.204 L48.985,37.387 C48.008,38.364 46.426,38.364 45.45,37.387 C44.474,36.41 44.473,34.827 45.45,33.852 L55.633,23.67 C58.945,20.357 64.336,20.357 67.654,23.669 L71.331,27.348 C72.936,28.953 73.82,31.088 73.821,33.359 C73.82,35.629 72.936,37.764 71.329,39.368 Z" id="Shape"></path>
        </g>
    </g>
</svg>